<?xml version="1.0" encoding="UTF-8"?>
<svg id="Capa_1" xmlns="http://www.w3.org/2000/svg" version="1.1" viewBox="0 0 850.39 566.93">
  <!-- Generator: Adobe Illustrator 29.8.1, SVG Export Plug-In . SVG Version: 2.1.1 Build 2)  -->
  <defs>
    <style>
      .st0 {
        fill: #6bcfff;
      }

      .st1 {
        fill: #ede1c2;
      }
    </style>
  </defs>
  <path class="st0" d="M171.57,275.54v122.53c0,12.15-9.85,22-22,22h0c-12.15,0-22-9.85-22-22v-59.09c1.49-15.28,8.76-28.36,17.93-39.06,8.86-10.34,16.97-18.54,26.06-24.37Z"/>
  <circle class="st0" cx="166.03" cy="174.03" r="31.8"/>
  <path class="st0" d="M615.28,406.98h0c0-9.9,8.11-17.85,18-17.69.28,0,.57,0,.85,0-31.64,0-41.36-27.57-41.36-54.52s9.71-55.14,41.36-55.14c-.29,0-.57,0-.85,0-9.9.16-18-7.79-18-17.69s7.5-17.3,16.94-17.68c-52.48.85-86.44,36.34-86.44,90.51s33.96,89.03,86.44,89.88c-9.44-.39-16.94-8.17-16.94-17.68Z"/>
  <path class="st1" d="M483.5,326.31s-.01.03-.01.04c-2,10.09-10.9,17.69-21.57,17.69-12.09,0-21.9-9.75-22-21.82v75.79c0,12.15,9.85,22,22,22s22-9.85,22-22v-73.45c-.15.58-.29,1.16-.42,1.75Z"/>
  <path class="st1" d="M248.91,243.28h0c0,12.15-9.85,22-22,22h-17.45c-29.29,0-44.89,12.4-63.95,34.64-9.17,10.7-16.44,23.78-17.93,39.06v-96.14c0-11.9,9.65-21.55,21.55-21.55h77.79c12.15,0,22,9.85,22,22Z"/>
  <path class="st1" d="M422.86,346.34c-4.24,4.11-10.04,6.63-16.39,6.63-13.11,0-23.83-10.73-23.49-23.84.02-.83.03-1.67.03-2.51,0,28.2-12.22,54.52-40.1,54.52-16.94,0-28.08-9.94-34.15-24.14v-61.23s0,0,0,0h0c-.04.09-.07.17-.11.26-.32,3.31-1.38,6.4-3.01,9.11-.01.02-.01.03-.02.04-3.85,6.39-10.86,10.66-18.86,10.66-12.14,0-21.99-9.84-21.99-21.99v104.17c0,12.15,9.85,22,21.99,22s21.97-9.82,22-21.94c11.21,12.93,29.37,18.47,50.44,18.47,33.31,0,68.98-26.24,70.73-85.66-.33,6.08-2.97,11.51-7.07,15.46Z"/>
  <path class="st0" d="M430.01,326.31c0,1.31-.02,2.61-.05,3.89-.16,6.35-2.85,12.04-7.1,16.14-4.24,4.11-10.04,6.63-16.39,6.63-13.11,0-23.83-10.73-23.49-23.84.02-.83.03-1.67.03-2.51,0-28.83-12.22-55.15-40.1-55.15-17.04,0-28.22,10.06-34.26,24.55-.32,3.31-1.38,6.4-3.01,9.11-.01.02-.01.03-.02.04-3.85,6.39-10.86,10.66-18.86,10.66-12.14,0-21.99-9.84-21.99-21.99v-88.61c0-12.15,9.85-22,21.99-22,6.08,0,11.58,2.46,15.56,6.44,3.98,3.98,6.44,9.48,6.44,15.56v51.95c12.05-14.38,31.37-21.11,50.44-21.11,34.15,0,70.81,27.57,70.81,90.24Z"/>
  <path class="st0" d="M550.21,254.59v19.69c0,7.97-6.69,14.27-14.66,13.88-.81-.04-1.58-.06-2.26-.06-27.93,0-44.97,16.14-49.79,38.21,0,.01-.01.03-.01.04-2,10.09-10.9,17.69-21.57,17.69-12.15,0-22-9.85-22-22v-52.71c0-12.15,9.85-22,22-22,6.08,0,11.58,2.46,15.56,6.44,3.98,3.98,6.44,9.48,6.44,15.56v6.29c10.48-18.23,35.4-31.39,55.95-31.39,5.72.01,10.34,4.65,10.34,10.36Z"/>
  <path class="st1" d="M634.14,244.23c-.47,0-.94,0-1.41,0-9.68.12-17.45,8.03-17.45,17.71h0c0,9.9,8.11,17.85,18,17.69.28,0,.57,0,.85,0,31.96,0,41.67,27.57,41.67,55.14s-9.71,54.52-41.67,54.52c-.29,0-.57,0-.85,0-9.9-.16-18,7.79-18,17.69h0c0,9.68,7.77,17.6,17.45,17.71.47,0,.94,0,1.41,0,53.89,0,88.67-35.72,88.67-89.92s-34.78-90.55-88.67-90.55Z"/>
</svg>